# xmcd
#
# Track frame offsets:
#       200
#       4537
#       15525
#       28280
#       40950
#       49890
#       61220
#       69582
#       73415
#       79262
#       94517
#       107145
#       117382
#       128475
#       140242
#       149192
#       153455
#       157425
#       161840
#       173230
#       190770
#       202012
#       215842
#       227917
#       233127
#       242042
#       252215
#       264440
#       277365
#       287792
#       307747
#       318055
#
# Disc length: 4284 seconds
#
# Revision: 3
# Processed by: cddbd v1.5.2PL0 Copyright (c) Steve Scherf et al.
# Submitted via: FreeDbEdit v0.1
#
DISCID=ed10ba20
DTITLE=The Stanley Brothers - Stanley Brothers on Radio
DYEAR=1960
DGENRE=Bluegrass
TTITLE0=Theme
TTITLE1=Roll in My Sweet Baby's Arms
TTITLE2=A Few More Seasons
TTITLE3=Love Me Darling Just Tonight
TTITLE4=Black Mountain Blues
TTITLE5=My Lord's Gonna Set Me Free
TTITLE6=How Mountain Girls Can Love
TTITLE7=Mississippi Sawyer
TTITLE8=Jim Walter Commercial
TTITLE9=Orange Blossom Special
TTITLE10=Daniel Prayed
TTITLE11=Shenandoah Waltz
TTITLE12=How Far to Little Rock
TTITLE13=Mother's Footsteps Guide Me On
TTITLE14=Pig in a Pen
TTITLE15=Cripple Creek
TTITLE16=Theme
TTITLE17=Theme
TTITLE18=Uncle Pen
TTITLE19=Little Glass of Wine
TTITLE20=Midnight Ramble
TTITLE21=Heaven
TTITLE22=Don't Go Out Tonight
TTITLE23=Fire on the Mountain
TTITLE24=Jim Walter Commercial
TTITLE25=Carolina Mountain Home
TTITLE26=Mother No Longer Awaits Me at Home
TTITLE27=He'll Set Your Fields on Fire
TTITLE28=Big Tilda
TTITLE29=If We Never Meet Again
TTITLE30=Whoa Mule
TTITLE31=Theme
EXTD=
EXTT0=
EXTT1=
EXTT2=
EXTT3=
EXTT4=
EXTT5=
EXTT6=
EXTT7=
EXTT8=
EXTT9=
EXTT10=
EXTT11=
EXTT12=
EXTT13=
EXTT14=
EXTT15=
EXTT16=
EXTT17=
EXTT18=
EXTT19=
EXTT20=
EXTT21=
EXTT22=
EXTT23=
EXTT24=
EXTT25=
EXTT26=
EXTT27=
EXTT28=
EXTT29=
EXTT30=
EXTT31=
PLAYORDER=
